#define noname_width 8
#define noname_height 10
static char noname_bits[] = {
 0x81,0xc3,0xc3,0x7e,0x66,0x24,0x24,0x3c,0x18,0x18};
