#define noname_width 6
#define noname_height 10
static char noname_bits[] = {
 0x3f,0x20,0x20,0x20,0x3f,0x3f,0x20,0x20,0x20,0x3f};
