#define noname_width 17
#define noname_height 12
static char noname_bits[] = {
 0x80,0xf3,0x00,0xc0,0xa6,0x01,0xc6,0xf6,0x00,0x1f,0x06,0x00,0x1b,0x03,0x00,
 0x9b,0x05,0x00,0xd8,0x07,0x00,0x18,0x00,0x00,0x0c,0x00,0x00,0x02,0x00,0x00,
 0x13,0x00,0x00,0x1f,0x00,0x00};
