#define noname_width 36
#define noname_height 17
static char noname_bits[] = {
 0x00,0x00,0x00,0x04,0x00,0x00,0x00,0x7c,0x06,0x04,0x00,0x00,0x46,0x02,0x08,
 0x00,0x70,0x42,0xf2,0x08,0x00,0x50,0x62,0xa2,0x09,0x80,0x43,0x3e,0xf2,0x08,
 0xc0,0x66,0x00,0x02,0x0c,0xc6,0x76,0x00,0x04,0x04,0x1f,0x06,0x00,0x00,0x00,
 0x1b,0x03,0x00,0x00,0x00,0x9b,0x05,0x00,0x00,0x00,0xd8,0x07,0x00,0x00,0x00,
 0x18,0x00,0x00,0x00,0x00,0x0c,0x00,0x00,0x00,0x00,0x02,0x00,0x00,0x00,0x00,
 0x13,0x00,0x00,0x00,0x00,0x1f,0x00,0x00,0x00,0x00};
